<svg id="svg" version="1.1" xmlns="http://www.w3.org/2000/svg" xmlns:xlink="http://www.w3.org/1999/xlink" width="400" height="134.35700575815738" viewBox="0, 0, 400,134.35700575815738"><g id="svgg"><path id="path0" d="M111.250 72.163 C 105.654 72.328,100.468 72.653,100.258 72.850 C 100.171 72.933,99.796 72.999,99.425 72.998 C 98.216 72.995,90.086 73.870,89.995 74.013 C 89.946 74.089,89.759 74.146,89.578 74.140 C 88.863 74.116,82.927 75.100,82.417 75.328 C 82.233 75.409,80.921 75.718,79.500 76.013 C 78.079 76.308,76.839 76.610,76.744 76.683 C 76.649 76.755,75.749 77.013,74.744 77.255 C 73.739 77.497,72.842 77.756,72.750 77.830 C 72.596 77.954,72.214 78.064,69.417 78.788 C 68.867 78.930,68.379 79.097,68.333 79.158 C 68.287 79.219,67.650 79.443,66.917 79.654 C 66.183 79.866,65.358 80.139,65.083 80.262 C 64.808 80.385,63.833 80.722,62.917 81.011 C 62.000 81.300,61.175 81.593,61.083 81.662 C 60.992 81.732,60.242 81.996,59.417 82.250 C 58.592 82.503,57.767 82.801,57.583 82.912 C 57.400 83.022,56.616 83.315,55.841 83.564 C 55.067 83.812,54.354 84.079,54.258 84.157 C 54.162 84.235,53.483 84.502,52.750 84.750 C 52.017 84.998,51.267 85.294,51.083 85.407 C 50.900 85.520,50.150 85.818,49.417 86.070 C 48.684 86.322,48.009 86.585,47.917 86.655 C 47.650 86.860,45.447 87.669,45.369 87.591 C 45.330 87.552,45.162 87.647,44.995 87.802 C 44.828 87.957,44.105 88.295,43.388 88.555 C 42.670 88.814,41.544 89.283,40.885 89.596 C 40.226 89.910,39.589 90.167,39.469 90.167 C 39.348 90.168,38.989 90.327,38.670 90.522 C 38.351 90.716,37.788 90.980,37.420 91.108 C 37.051 91.236,36.300 91.555,35.750 91.816 C 34.157 92.574,33.090 93.061,33.000 93.073 C 32.880 93.088,30.920 93.945,29.750 94.494 C 29.200 94.752,28.150 95.241,27.417 95.580 C 25.030 96.683,23.608 97.351,22.250 98.003 C 18.446 99.831,17.589 100.222,17.387 100.222 C 17.266 100.222,17.167 100.281,17.167 100.354 C 17.167 100.490,15.059 101.530,14.333 101.751 C 14.104 101.821,13.879 101.924,13.833 101.981 C 13.787 102.037,13.262 102.308,12.667 102.583 C 12.071 102.858,11.528 103.158,11.461 103.250 C 11.379 103.361,11.337 103.361,11.333 103.250 C 11.330 103.139,11.287 103.139,11.206 103.250 C 11.138 103.342,10.596 103.642,10.000 103.917 C 9.404 104.192,8.879 104.454,8.833 104.500 C 8.701 104.632,6.510 105.666,6.393 105.651 C 6.335 105.644,6.241 105.701,6.185 105.777 C 6.129 105.854,5.821 106.057,5.500 106.228 C 4.378 106.827,2.893 107.585,2.490 107.764 C 2.266 107.863,1.651 108.181,1.124 108.471 L 0.164 108.997 0.172 101.811 C 0.177 97.859,0.140 94.584,0.090 94.535 C 0.041 94.485,0.000 103.419,0.000 114.389 L 0.000 134.333 200.000 134.333 L 400.000 134.333 400.000 104.482 C 400.000 77.697,399.974 74.641,399.744 74.729 C 399.495 74.825,398.918 75.197,392.631 79.316 C 391.007 80.380,389.095 81.616,388.381 82.064 C 386.417 83.296,386.151 83.468,382.880 85.632 C 381.210 86.737,379.692 87.689,379.505 87.748 C 379.319 87.807,379.167 87.961,379.167 88.089 C 379.167 88.327,377.360 89.587,376.326 90.069 C 376.009 90.217,375.262 90.638,374.667 91.005 C 374.071 91.372,373.255 91.822,372.853 92.006 C 372.451 92.190,371.851 92.550,371.519 92.807 C 371.188 93.064,370.317 93.487,369.583 93.748 C 368.850 94.009,368.212 94.267,368.167 94.320 C 368.121 94.373,367.596 94.633,367.000 94.898 C 366.404 95.162,365.654 95.513,365.333 95.676 C 365.012 95.840,364.300 96.142,363.751 96.348 C 363.201 96.553,362.526 96.859,362.251 97.027 C 361.975 97.195,361.652 97.332,361.531 97.333 C 361.411 97.333,360.924 97.517,360.448 97.741 C 359.972 97.965,358.871 98.385,358.000 98.675 C 357.129 98.965,356.342 99.262,356.250 99.335 C 356.158 99.408,355.258 99.707,354.250 100.000 C 353.242 100.293,352.341 100.594,352.249 100.669 C 352.156 100.745,351.307 101.003,350.362 101.243 C 349.417 101.482,348.517 101.747,348.363 101.830 C 348.072 101.988,345.080 102.726,343.917 102.928 C 343.550 102.991,343.175 103.099,343.083 103.167 C 342.992 103.235,341.754 103.496,340.333 103.746 C 338.912 103.997,337.600 104.266,337.417 104.344 C 337.233 104.422,335.883 104.645,334.417 104.841 C 332.950 105.037,331.410 105.303,330.994 105.433 C 330.545 105.574,328.852 105.735,326.827 105.830 C 324.951 105.919,323.117 106.066,322.750 106.158 C 321.853 106.383,314.892 106.389,311.583 106.169 C 309.719 106.044,308.566 106.043,307.750 106.165 C 302.800 106.904,284.863 106.796,278.500 105.989 C 277.721 105.890,276.896 105.787,276.667 105.760 C 276.438 105.733,276.137 105.672,276.000 105.625 C 275.862 105.577,273.987 105.330,271.833 105.077 C 269.679 104.823,267.804 104.557,267.667 104.486 C 267.529 104.414,266.104 104.160,264.500 103.921 C 262.896 103.681,261.471 103.438,261.333 103.381 C 261.196 103.323,260.933 103.263,260.750 103.246 C 260.567 103.229,260.304 103.170,260.167 103.115 C 259.909 103.011,258.405 102.705,257.667 102.606 C 256.696 102.476,255.107 102.134,254.855 102.002 C 254.706 101.923,253.533 101.656,252.250 101.409 C 250.967 101.162,249.842 100.914,249.750 100.857 C 249.658 100.801,249.471 100.747,249.333 100.738 C 249.196 100.729,248.971 100.672,248.833 100.611 C 248.696 100.551,248.246 100.434,247.833 100.353 C 245.850 99.960,243.731 99.443,243.566 99.312 C 243.464 99.231,243.052 99.099,242.649 99.018 C 240.826 98.651,239.243 98.263,239.167 98.163 C 239.084 98.056,236.769 97.442,235.351 97.151 C 234.948 97.069,234.536 96.933,234.434 96.850 C 234.333 96.766,233.387 96.488,232.333 96.232 C 231.279 95.975,230.379 95.718,230.333 95.659 C 230.287 95.600,229.313 95.309,228.167 95.011 C 227.021 94.714,226.005 94.405,225.908 94.326 C 225.812 94.246,225.400 94.136,224.992 94.080 C 223.695 93.902,222.667 93.638,222.667 93.483 C 222.667 93.401,222.584 93.333,222.484 93.333 C 222.383 93.333,222.064 93.228,221.775 93.100 C 221.194 92.841,218.204 91.997,217.875 91.999 C 217.760 92.000,217.667 91.934,217.667 91.853 C 217.667 91.772,217.498 91.669,217.292 91.623 C 216.043 91.350,214.068 90.757,213.985 90.631 C 213.930 90.549,213.818 90.498,213.735 90.518 C 213.651 90.537,213.471 90.509,213.333 90.455 C 213.196 90.401,212.371 90.158,211.500 89.915 C 210.629 89.672,209.692 89.373,209.417 89.250 C 209.142 89.128,208.169 88.829,207.255 88.587 C 206.341 88.345,205.516 88.083,205.422 88.005 C 205.254 87.867,204.318 87.588,202.208 87.045 C 201.635 86.898,201.167 86.715,201.167 86.639 C 201.167 86.562,201.050 86.500,200.906 86.500 C 200.542 86.500,197.649 85.689,197.277 85.482 C 196.999 85.328,195.467 84.890,193.757 84.476 C 193.394 84.388,193.019 84.253,192.923 84.176 C 192.749 84.035,191.153 83.582,189.917 83.324 C 189.550 83.247,188.779 82.997,188.202 82.769 C 187.626 82.540,186.576 82.231,185.869 82.082 C 185.162 81.932,184.433 81.742,184.250 81.658 C 183.430 81.286,182.886 81.105,182.500 81.076 C 182.271 81.059,181.558 80.916,180.917 80.759 C 180.275 80.601,179.675 80.457,179.583 80.439 C 179.492 80.422,179.342 80.362,179.250 80.308 C 179.158 80.253,178.558 80.084,177.917 79.932 C 177.275 79.781,176.600 79.618,176.417 79.571 C 176.233 79.524,175.784 79.445,175.419 79.397 C 175.054 79.349,174.716 79.250,174.669 79.178 C 174.622 79.106,173.765 78.883,172.764 78.683 C 171.763 78.482,170.863 78.267,170.764 78.204 C 170.665 78.141,170.358 78.068,170.083 78.041 C 169.435 77.978,169.141 77.918,168.833 77.785 C 168.696 77.725,167.504 77.481,166.184 77.241 C 164.865 77.002,163.665 76.742,163.518 76.664 C 163.370 76.586,161.975 76.325,160.417 76.083 C 158.858 75.841,157.321 75.602,157.000 75.550 C 156.679 75.499,156.342 75.402,156.250 75.335 C 156.158 75.267,155.708 75.165,155.250 75.106 C 154.792 75.048,153.029 74.808,151.333 74.573 C 149.637 74.339,148.063 74.153,147.833 74.160 C 147.604 74.168,147.267 74.103,147.083 74.016 C 146.703 73.837,142.967 73.429,139.167 73.152 C 137.746 73.049,136.433 72.901,136.250 72.823 C 135.807 72.636,130.238 72.318,126.083 72.243 C 124.250 72.210,121.175 72.148,119.250 72.106 C 117.325 72.064,113.725 72.089,111.250 72.163 " stroke="none" fill="#fbfbfb" fill-rule="evenodd"></path><path id="path1" d="M0.017 47.142 C -0.032 82.444,-0.001 94.313,0.142 94.402 C 0.266 94.478,0.333 95.132,0.333 96.260 C 0.333 97.217,0.390 98.000,0.458 98.000 C 0.689 98.000,2.241 97.367,3.282 96.848 C 3.850 96.565,4.413 96.333,4.532 96.333 C 4.652 96.332,4.995 96.183,5.293 96.001 C 5.592 95.819,6.455 95.433,7.210 95.143 C 7.965 94.853,8.629 94.546,8.685 94.461 C 8.741 94.375,8.816 94.326,8.852 94.352 C 8.924 94.405,11.408 93.421,11.899 93.144 C 12.073 93.047,12.711 92.781,13.316 92.555 C 13.921 92.329,14.567 92.048,14.750 91.932 C 14.933 91.816,15.646 91.524,16.333 91.283 C 17.021 91.043,17.958 90.658,18.417 90.428 C 18.875 90.198,19.353 90.008,19.480 90.005 C 19.606 90.002,20.168 89.784,20.730 89.519 C 22.179 88.836,23.496 88.333,23.835 88.333 C 23.995 88.333,24.219 88.221,24.333 88.083 C 24.447 87.946,24.667 87.833,24.820 87.833 C 24.974 87.833,25.171 87.767,25.258 87.687 C 25.345 87.606,25.717 87.448,26.083 87.335 C 26.450 87.222,26.900 87.037,27.083 86.924 C 27.267 86.812,28.129 86.475,29.000 86.176 C 29.871 85.876,30.658 85.574,30.750 85.504 C 30.842 85.433,31.517 85.167,32.250 84.913 C 32.983 84.659,33.661 84.391,33.757 84.318 C 33.852 84.244,34.640 83.947,35.507 83.658 C 36.374 83.368,37.158 83.072,37.250 83.000 C 37.449 82.843,40.438 81.833,40.705 81.833 C 40.807 81.833,41.009 81.732,41.154 81.608 C 41.298 81.484,41.829 81.253,42.333 81.094 C 42.837 80.934,43.475 80.700,43.750 80.574 C 44.025 80.447,44.958 80.114,45.822 79.833 C 46.687 79.553,47.475 79.261,47.572 79.185 C 47.670 79.110,48.462 78.835,49.333 78.575 C 50.204 78.315,51.067 78.012,51.250 77.902 C 51.433 77.792,52.296 77.497,53.167 77.247 C 54.038 76.997,54.825 76.734,54.917 76.663 C 55.008 76.592,55.908 76.291,56.917 75.995 C 57.925 75.699,58.825 75.401,58.917 75.332 C 59.008 75.264,59.796 75.000,60.667 74.746 C 61.537 74.492,62.362 74.225,62.500 74.152 C 63.041 73.866,65.236 73.313,65.526 73.388 C 65.695 73.433,65.792 73.401,65.740 73.318 C 65.689 73.235,65.745 73.166,65.865 73.166 C 65.985 73.165,66.291 73.056,66.546 72.923 C 66.800 72.791,67.812 72.488,68.796 72.251 C 69.779 72.014,70.712 71.748,70.869 71.662 C 71.027 71.575,72.077 71.278,73.203 71.002 C 74.329 70.726,75.400 70.429,75.583 70.342 C 75.767 70.255,77.042 69.940,78.417 69.643 C 79.792 69.345,80.954 69.053,81.000 68.993 C 81.046 68.934,81.346 68.840,81.667 68.784 C 81.987 68.729,82.887 68.564,83.667 68.419 C 84.446 68.273,85.327 68.120,85.626 68.078 C 85.924 68.036,86.299 67.932,86.459 67.846 C 86.897 67.612,93.522 66.667,94.725 66.667 C 95.023 66.667,95.338 66.599,95.425 66.517 C 95.512 66.435,96.371 66.320,97.333 66.262 C 98.296 66.204,99.346 66.123,99.667 66.082 C 105.038 65.398,128.565 65.401,134.142 66.087 C 134.385 66.117,135.369 66.190,136.330 66.249 C 137.290 66.308,138.153 66.419,138.247 66.497 C 138.340 66.574,139.017 66.681,139.750 66.734 C 142.071 66.901,148.569 67.679,148.917 67.831 C 149.100 67.912,149.625 68.022,150.083 68.076 C 152.137 68.320,155.614 68.872,155.917 69.002 C 156.100 69.082,157.656 69.375,159.375 69.655 C 161.093 69.935,162.631 70.233,162.791 70.317 C 162.952 70.402,164.321 70.707,165.833 70.994 C 167.346 71.282,168.700 71.580,168.844 71.657 C 168.987 71.734,170.074 72.000,171.260 72.248 C 172.446 72.496,173.492 72.758,173.583 72.830 C 173.675 72.902,174.012 73.014,174.333 73.078 C 175.915 73.394,178.449 74.027,178.703 74.169 C 178.861 74.258,179.786 74.522,180.760 74.756 C 181.734 74.991,182.655 75.251,182.807 75.334 C 183.146 75.518,186.749 76.500,187.089 76.500 C 187.223 76.500,187.333 76.575,187.333 76.667 C 187.333 76.758,187.483 76.833,187.667 76.833 C 187.850 76.833,188.000 76.892,188.000 76.964 C 188.000 77.036,188.131 77.100,188.292 77.106 C 188.726 77.121,191.391 77.841,191.583 77.995 C 191.675 78.068,192.425 78.329,193.250 78.574 C 194.075 78.819,194.975 79.119,195.250 79.241 C 195.525 79.363,196.463 79.668,197.333 79.919 C 198.204 80.169,198.992 80.432,199.083 80.503 C 199.175 80.574,199.813 80.798,200.500 81.000 C 201.188 81.203,201.938 81.470,202.167 81.595 C 202.396 81.719,203.371 82.054,204.333 82.338 C 205.296 82.623,206.395 82.998,206.777 83.172 C 207.158 83.345,207.813 83.574,208.233 83.680 C 208.653 83.785,208.967 83.919,208.931 83.978 C 208.896 84.036,209.133 84.098,209.459 84.115 C 209.785 84.132,210.096 84.212,210.151 84.291 C 210.275 84.471,210.956 84.730,212.250 85.088 C 212.800 85.240,213.325 85.425,213.417 85.499 C 213.508 85.572,214.323 85.863,215.227 86.144 C 216.130 86.426,216.955 86.724,217.060 86.808 C 217.164 86.891,217.943 87.161,218.790 87.408 C 219.636 87.655,220.547 87.966,220.814 88.099 C 221.081 88.232,221.926 88.528,222.691 88.756 C 223.457 88.984,224.308 89.276,224.583 89.404 C 224.858 89.531,225.758 89.842,226.583 90.093 C 227.408 90.345,228.158 90.606,228.250 90.673 C 228.342 90.740,229.092 90.995,229.917 91.241 C 230.742 91.486,231.642 91.788,231.917 91.913 C 232.192 92.038,233.129 92.342,234.000 92.590 C 234.871 92.838,235.658 93.098,235.750 93.169 C 235.842 93.240,236.629 93.508,237.500 93.765 C 238.371 94.022,239.121 94.280,239.167 94.337 C 239.213 94.394,239.625 94.539,240.083 94.658 C 241.774 95.098,243.255 95.550,243.418 95.676 C 243.510 95.748,244.372 96.008,245.334 96.254 C 246.296 96.500,247.308 96.798,247.583 96.917 C 248.238 97.201,251.167 98.003,251.542 98.001 C 251.702 98.000,251.833 98.069,251.833 98.153 C 251.833 98.300,252.534 98.505,254.167 98.838 C 255.002 99.008,256.076 99.303,256.583 99.502 C 256.959 99.649,258.508 100.035,260.250 100.415 C 260.892 100.555,261.567 100.740,261.750 100.826 C 261.933 100.912,262.646 101.100,263.333 101.244 C 264.021 101.387,264.696 101.532,264.833 101.566 C 264.971 101.600,265.418 101.683,265.827 101.751 C 266.236 101.819,266.686 101.939,266.827 102.019 C 267.058 102.148,270.246 102.786,272.167 103.088 C 272.579 103.152,272.992 103.253,273.083 103.311 C 273.255 103.420,276.025 103.959,276.917 104.057 C 279.065 104.293,279.667 104.387,279.667 104.486 C 279.667 104.548,280.398 104.693,281.292 104.809 C 284.535 105.226,288.599 105.663,289.258 105.665 C 289.630 105.666,290.005 105.733,290.092 105.815 C 290.556 106.250,304.339 106.688,305.997 106.320 C 307.220 106.049,306.936 105.878,305.218 105.850 C 304.651 105.841,304.147 105.769,304.098 105.691 C 304.050 105.613,303.314 105.498,302.464 105.436 C 300.094 105.263,295.094 104.638,295.000 104.503 C 294.954 104.437,294.504 104.332,294.000 104.269 C 292.177 104.044,287.913 103.291,287.750 103.166 C 287.658 103.095,286.571 102.835,285.333 102.587 C 284.096 102.340,283.008 102.078,282.917 102.005 C 282.825 101.932,282.487 101.818,282.167 101.753 C 280.379 101.390,278.015 100.786,277.558 100.575 C 277.269 100.442,276.915 100.333,276.770 100.333 C 276.625 100.333,276.224 100.229,275.878 100.102 C 275.533 99.974,274.819 99.775,274.292 99.659 C 273.765 99.542,273.333 99.384,273.333 99.307 C 273.333 99.230,273.209 99.167,273.058 99.167 C 272.711 99.167,269.779 98.302,269.667 98.167 C 269.621 98.112,268.721 97.814,267.667 97.504 C 266.612 97.195,265.675 96.888,265.583 96.823 C 265.492 96.757,264.779 96.497,264.000 96.244 C 263.221 95.991,262.505 95.724,262.409 95.650 C 262.314 95.577,261.605 95.317,260.833 95.073 C 260.062 94.830,259.167 94.489,258.843 94.315 C 258.520 94.142,258.160 94.000,258.044 94.000 C 257.928 94.000,257.833 93.921,257.833 93.823 C 257.833 93.726,257.769 93.687,257.690 93.736 C 257.542 93.827,255.713 93.238,255.417 93.004 C 255.325 92.931,254.725 92.681,254.083 92.448 C 253.442 92.215,252.602 91.869,252.216 91.679 C 251.831 91.489,251.437 91.333,251.341 91.333 C 251.244 91.333,250.772 91.142,250.291 90.908 C 249.810 90.675,248.929 90.293,248.333 90.061 C 247.737 89.829,246.711 89.382,246.052 89.069 C 245.393 88.756,244.756 88.500,244.635 88.499 C 244.515 88.499,244.156 88.340,243.836 88.145 C 243.517 87.951,242.992 87.697,242.670 87.581 C 242.347 87.465,241.358 87.028,240.471 86.608 C 239.584 86.189,238.665 85.797,238.429 85.738 C 238.193 85.679,238.000 85.577,238.000 85.513 C 238.000 85.448,237.569 85.221,237.042 85.009 C 236.149 84.649,235.142 84.185,232.000 82.681 C 231.313 82.352,230.704 82.021,230.648 81.944 C 230.592 81.868,230.496 81.817,230.434 81.831 C 230.246 81.875,228.983 81.270,218.167 75.957 C 215.279 74.538,212.230 73.049,211.391 72.647 C 210.553 72.245,209.908 71.849,209.959 71.766 C 210.010 71.683,209.974 71.663,209.879 71.721 C 209.785 71.780,208.367 71.164,206.729 70.353 C 203.312 68.661,201.567 67.833,201.415 67.833 C 201.168 67.833,200.822 67.320,200.938 67.126 C 201.028 66.976,200.986 66.980,200.788 67.141 C 200.551 67.333,200.377 67.292,199.559 66.849 C 199.036 66.565,198.549 66.333,198.477 66.333 C 198.365 66.333,196.856 65.636,193.250 63.919 C 190.939 62.818,189.356 62.101,188.803 61.906 C 188.465 61.787,187.902 61.537,187.553 61.352 C 187.203 61.167,186.467 60.844,185.917 60.634 C 185.367 60.425,184.874 60.195,184.822 60.124 C 184.769 60.052,184.507 59.926,184.238 59.843 C 183.699 59.676,182.898 59.361,180.429 58.347 C 179.519 57.973,178.681 57.667,178.568 57.667 C 178.454 57.667,178.336 57.610,178.306 57.541 C 178.275 57.472,177.725 57.237,177.083 57.019 C 176.442 56.801,175.767 56.534,175.583 56.425 C 175.400 56.316,174.537 55.984,173.667 55.687 C 172.796 55.391,171.846 55.039,171.556 54.906 C 171.266 54.773,170.516 54.507,169.889 54.315 C 169.263 54.123,168.666 53.897,168.564 53.814 C 168.461 53.731,167.599 53.430,166.647 53.147 C 165.695 52.863,164.842 52.574,164.750 52.504 C 164.658 52.434,163.721 52.128,162.667 51.824 C 161.612 51.521,160.725 51.211,160.694 51.136 C 160.664 51.061,160.528 51.000,160.392 51.000 C 160.059 51.000,157.207 50.194,156.583 49.924 C 156.308 49.805,155.258 49.502,154.250 49.250 C 153.242 48.999,152.342 48.739,152.250 48.673 C 152.158 48.606,151.183 48.345,150.083 48.093 C 148.983 47.840,147.858 47.538,147.583 47.421 C 147.308 47.303,146.071 47.004,144.833 46.756 C 143.596 46.507,142.508 46.246,142.417 46.175 C 142.325 46.104,140.938 45.806,139.333 45.513 C 137.729 45.219,136.300 44.917,136.156 44.841 C 136.013 44.765,134.626 44.502,133.073 44.256 C 131.520 44.009,130.100 43.740,129.917 43.656 C 129.649 43.534,126.928 43.150,121.250 42.433 C 121.067 42.410,120.804 42.344,120.667 42.286 C 120.338 42.149,113.368 41.541,110.500 41.400 C 109.263 41.339,108.145 41.205,108.016 41.103 C 107.685 40.839,85.816 40.839,85.484 41.102 C 85.354 41.206,84.212 41.336,82.917 41.396 C 79.414 41.557,72.296 42.160,71.917 42.328 C 71.733 42.409,71.096 42.522,70.500 42.577 C 67.871 42.824,62.402 43.541,62.250 43.659 C 62.158 43.731,61.671 43.838,61.167 43.898 C 59.176 44.136,55.732 44.695,55.417 44.832 C 55.233 44.911,53.708 45.210,52.027 45.496 C 50.346 45.782,48.846 46.083,48.694 46.165 C 48.541 46.247,47.179 46.547,45.667 46.830 C 44.154 47.114,42.804 47.407,42.667 47.482 C 42.529 47.556,41.442 47.830,40.250 48.089 C 39.058 48.349,38.046 48.606,38.000 48.661 C 37.954 48.716,36.792 49.017,35.417 49.329 C 34.042 49.641,32.879 49.943,32.833 50.000 C 32.787 50.057,31.925 50.309,30.917 50.560 C 29.908 50.810,28.961 51.082,28.812 51.163 C 28.662 51.245,27.687 51.536,26.645 51.810 C 25.603 52.085,24.525 52.427,24.250 52.570 C 23.975 52.714,23.645 52.832,23.516 52.832 C 23.196 52.834,20.270 53.708,20.167 53.833 C 20.121 53.889,19.371 54.144,18.500 54.401 C 17.629 54.659,16.821 54.947,16.704 55.042 C 16.588 55.137,16.444 55.167,16.386 55.109 C 16.328 55.050,16.199 55.070,16.099 55.152 C 15.999 55.235,15.467 55.431,14.917 55.589 C 14.367 55.747,13.617 56.011,13.250 56.175 C 12.883 56.339,11.983 56.669,11.250 56.909 C 10.517 57.148,9.729 57.445,9.500 57.568 C 9.271 57.692,8.483 57.996,7.750 58.243 C 7.017 58.491,6.028 58.875,5.552 59.097 C 5.076 59.319,4.598 59.500,4.489 59.500 C 4.380 59.500,3.832 59.717,3.270 59.981 C 1.928 60.615,0.566 61.167,0.344 61.167 C 0.221 61.167,0.167 58.086,0.167 51.028 L 0.167 40.890 1.375 40.292 C 2.040 39.963,3.071 39.491,3.667 39.244 C 4.263 38.996,5.087 38.625,5.500 38.419 C 5.912 38.212,6.625 37.907,7.083 37.740 C 7.542 37.573,8.067 37.343,8.250 37.229 C 8.433 37.115,9.033 36.857,9.583 36.655 C 10.133 36.454,10.661 36.228,10.757 36.153 C 10.852 36.079,11.564 35.784,12.340 35.499 C 13.115 35.214,14.139 34.798,14.615 34.574 C 15.090 34.350,15.581 34.167,15.704 34.167 C 15.828 34.167,16.227 34.013,16.590 33.826 C 16.953 33.639,17.962 33.255,18.833 32.972 C 19.704 32.690,20.495 32.397,20.590 32.321 C 20.686 32.245,21.473 31.950,22.340 31.664 C 23.207 31.379,24.142 31.046,24.417 30.924 C 24.692 30.803,25.367 30.577,25.917 30.422 C 26.467 30.267,27.217 30.001,27.583 29.830 C 27.950 29.659,29.000 29.316,29.917 29.066 C 30.833 28.817,31.621 28.563,31.667 28.502 C 31.712 28.442,32.125 28.294,32.583 28.175 C 34.232 27.747,35.753 27.285,35.917 27.163 C 36.008 27.095,36.908 26.835,37.917 26.586 C 38.925 26.336,39.825 26.074,39.917 26.004 C 40.008 25.933,41.133 25.630,42.417 25.330 C 43.700 25.030,44.825 24.728,44.917 24.660 C 45.008 24.591,46.021 24.332,47.167 24.084 C 48.313 23.836,49.375 23.569,49.527 23.491 C 49.680 23.413,50.955 23.117,52.360 22.833 C 53.766 22.550,55.067 22.252,55.250 22.171 C 55.561 22.034,56.360 21.865,57.333 21.731 C 58.433 21.580,61.454 20.972,61.750 20.843 C 62.046 20.714,65.117 20.203,67.417 19.901 C 67.875 19.841,68.325 19.734,68.417 19.664 C 68.571 19.547,74.179 18.807,76.667 18.576 C 77.262 18.521,77.900 18.411,78.083 18.333 C 78.500 18.154,83.193 17.739,87.583 17.492 C 89.417 17.390,91.067 17.223,91.250 17.122 C 91.707 16.871,105.469 16.903,105.722 17.155 C 105.820 17.253,106.429 17.334,107.075 17.334 C 109.510 17.335,118.095 18.091,118.417 18.332 C 118.508 18.400,119.071 18.507,119.667 18.568 C 121.429 18.750,126.056 19.503,126.417 19.666 C 126.600 19.749,127.800 20.013,129.083 20.252 C 130.367 20.491,131.567 20.756,131.750 20.842 C 131.933 20.927,132.608 21.112,133.250 21.252 C 135.288 21.696,136.575 22.024,136.855 22.170 C 137.005 22.248,138.014 22.545,139.097 22.830 C 140.181 23.115,141.146 23.411,141.242 23.487 C 141.338 23.563,142.129 23.832,143.000 24.083 C 143.871 24.335,144.658 24.600,144.750 24.672 C 144.842 24.744,145.557 24.988,146.340 25.214 C 147.123 25.441,148.106 25.782,148.524 25.973 C 148.943 26.164,149.803 26.488,150.435 26.692 C 151.066 26.897,151.621 27.118,151.668 27.185 C 151.714 27.251,152.389 27.530,153.168 27.804 C 153.946 28.079,154.977 28.498,155.458 28.735 C 155.938 28.973,156.445 29.167,156.583 29.167 C 156.720 29.167,156.833 29.229,156.833 29.306 C 156.833 29.382,156.927 29.445,157.042 29.447 C 157.156 29.448,157.587 29.602,158.000 29.789 C 158.412 29.976,159.162 30.299,159.667 30.506 C 160.639 30.905,162.105 31.562,163.750 32.336 C 164.300 32.594,165.162 32.966,165.667 33.162 C 166.171 33.358,166.659 33.608,166.751 33.717 C 166.843 33.827,167.030 33.939,167.167 33.967 C 167.594 34.052,169.848 35.141,176.041 38.250 C 179.327 39.900,182.443 41.464,182.966 41.726 C 183.489 41.987,183.954 42.251,184.000 42.312 C 184.046 42.372,184.646 42.707,185.333 43.056 C 187.397 44.103,188.883 44.902,189.500 45.298 C 189.821 45.504,190.367 45.799,190.713 45.954 C 191.077 46.116,191.309 46.322,191.263 46.442 C 191.216 46.564,191.276 46.614,191.408 46.564 C 191.531 46.516,192.060 46.726,192.584 47.030 C 193.107 47.335,194.028 47.855,194.629 48.187 C 195.231 48.519,195.823 48.927,195.945 49.094 C 196.067 49.261,196.167 49.344,196.167 49.279 C 196.167 49.129,197.416 49.797,198.917 50.749 C 199.558 51.157,200.255 51.566,200.464 51.660 C 200.674 51.753,201.364 52.168,201.997 52.582 C 202.631 52.995,203.201 53.333,203.266 53.333 C 203.330 53.333,203.765 53.584,204.233 53.890 C 204.701 54.196,205.346 54.590,205.667 54.765 C 205.987 54.940,206.275 55.140,206.306 55.208 C 206.336 55.277,206.437 55.333,206.530 55.333 C 206.623 55.333,207.332 55.746,208.105 56.250 C 208.879 56.754,209.555 57.167,209.607 57.167 C 209.824 57.167,211.333 58.236,211.333 58.389 C 211.333 58.481,211.381 58.508,211.440 58.449 C 211.538 58.351,212.472 58.784,212.667 59.017 C 212.713 59.072,212.938 59.214,213.167 59.333 C 213.396 59.452,214.086 59.876,214.699 60.275 C 215.313 60.674,215.864 61.000,215.923 61.000 C 215.982 61.000,216.755 61.474,217.640 62.053 C 218.526 62.633,219.382 63.156,219.544 63.215 C 219.705 63.275,220.358 63.664,220.993 64.079 C 221.629 64.494,222.189 64.833,222.237 64.833 C 222.286 64.833,223.058 65.306,223.954 65.885 C 224.850 66.463,225.716 66.986,225.877 67.047 C 226.039 67.108,226.691 67.497,227.327 67.912 C 227.962 68.327,228.534 68.667,228.596 68.667 C 228.977 68.667,229.845 69.392,229.640 69.538 C 229.475 69.657,229.495 69.673,229.719 69.600 C 230.034 69.498,231.157 70.034,231.692 70.542 C 231.862 70.702,232.094 70.834,232.208 70.834 C 232.323 70.835,232.939 71.173,233.578 71.584 C 234.217 71.996,234.796 72.333,234.864 72.333 C 234.994 72.333,236.932 73.532,237.285 73.830 C 237.395 73.923,237.602 74.000,237.743 74.000 C 237.884 74.000,238.000 74.075,238.000 74.167 C 238.000 74.258,238.081 74.333,238.179 74.333 C 238.278 74.333,238.897 74.648,239.554 75.034 C 240.797 75.762,241.887 76.365,243.167 77.034 C 243.579 77.249,244.441 77.724,245.082 78.088 C 246.377 78.823,249.005 80.207,250.667 81.028 C 251.262 81.322,251.775 81.624,251.806 81.698 C 251.836 81.772,251.934 81.833,252.023 81.833 C 252.190 81.833,260.352 85.841,260.500 85.996 C 260.546 86.044,260.696 86.106,260.833 86.134 C 260.971 86.161,261.703 86.480,262.461 86.842 C 263.219 87.204,263.894 87.500,263.961 87.500 C 264.028 87.500,264.533 87.718,265.083 87.984 C 265.633 88.250,266.421 88.601,266.833 88.765 C 267.246 88.929,267.696 89.148,267.833 89.254 C 267.971 89.359,268.721 89.654,269.500 89.909 C 270.279 90.165,271.142 90.508,271.417 90.672 C 271.692 90.836,272.396 91.126,272.981 91.317 C 273.566 91.507,274.129 91.730,274.231 91.811 C 274.333 91.892,275.167 92.200,276.083 92.495 C 277.000 92.790,277.825 93.089,277.917 93.160 C 278.008 93.230,278.758 93.497,279.583 93.753 C 280.408 94.009,281.158 94.272,281.250 94.339 C 281.462 94.494,284.222 95.333,284.524 95.334 C 284.648 95.335,284.966 95.448,285.229 95.585 C 285.493 95.723,286.618 96.066,287.729 96.347 C 288.841 96.629,289.900 96.929,290.083 97.013 C 290.267 97.098,291.279 97.356,292.333 97.587 C 293.387 97.818,294.400 98.080,294.583 98.168 C 294.767 98.256,296.215 98.558,297.802 98.839 C 299.389 99.120,300.852 99.420,301.052 99.506 C 301.464 99.682,309.174 100.667,310.139 100.667 C 310.484 100.667,310.838 100.735,310.925 100.818 C 311.705 101.566,335.128 101.566,335.908 100.818 C 335.995 100.735,336.302 100.667,336.589 100.667 C 337.069 100.667,342.980 99.966,344.450 99.735 C 344.798 99.680,345.158 99.579,345.250 99.511 C 345.342 99.442,345.979 99.292,346.667 99.177 C 349.092 98.769,351.254 98.330,351.583 98.178 C 351.767 98.093,352.329 97.937,352.833 97.831 C 354.716 97.434,355.922 97.122,356.090 96.988 C 356.185 96.913,356.560 96.781,356.923 96.695 C 358.243 96.384,360.186 95.825,360.465 95.676 C 360.622 95.593,361.537 95.285,362.500 94.992 C 363.462 94.698,364.327 94.398,364.421 94.323 C 364.515 94.249,365.184 93.995,365.906 93.759 C 366.629 93.523,367.302 93.265,367.402 93.186 C 367.502 93.107,368.258 92.799,369.083 92.500 C 369.908 92.201,370.658 91.904,370.750 91.838 C 370.842 91.773,371.254 91.591,371.667 91.433 C 372.943 90.946,373.333 90.757,373.333 90.626 C 373.333 90.557,373.447 90.500,373.586 90.500 C 373.726 90.500,374.607 90.131,375.545 89.679 C 378.087 88.455,379.119 88.068,378.819 88.450 C 378.603 88.725,378.608 88.731,378.883 88.515 C 379.047 88.386,379.143 88.179,379.096 88.057 C 379.049 87.934,379.102 87.833,379.214 87.833 C 379.392 87.833,381.165 86.698,384.583 84.395 C 385.133 84.024,385.942 83.503,386.380 83.236 C 387.370 82.633,388.989 81.598,391.583 79.911 C 395.053 77.654,395.709 77.229,397.417 76.130 C 398.333 75.540,399.290 74.930,399.542 74.775 L 400.000 74.492 400.000 37.357 L 400.000 0.222 306.625 0.111 C 255.269 0.050,165.287 0.000,106.667 0.000 L 0.083 0.000 0.017 47.142 M374.792 90.762 C 374.145 91.113,374.219 91.234,374.875 90.900 C 375.503 90.580,375.614 90.497,375.403 90.507 C 375.319 90.510,375.044 90.625,374.792 90.762 M370.750 93.000 C 370.475 93.182,370.325 93.331,370.417 93.331 C 370.508 93.331,370.808 93.182,371.083 93.000 C 371.358 92.818,371.508 92.669,371.417 92.669 C 371.325 92.669,371.025 92.818,370.750 93.000 M223.250 93.755 C 224.144 94.049,224.767 94.045,224.000 93.750 C 223.679 93.626,223.229 93.528,223.000 93.530 C 222.676 93.534,222.732 93.584,223.250 93.755 M361.917 97.009 C 361.550 97.183,361.347 97.327,361.467 97.329 C 361.709 97.334,362.667 96.869,362.667 96.746 C 362.667 96.648,362.716 96.631,361.917 97.009 M355.667 99.431 C 355.121 99.654,355.115 99.663,355.583 99.573 C 355.858 99.520,356.155 99.407,356.242 99.322 C 356.441 99.126,356.384 99.137,355.667 99.431 M351.667 100.764 C 351.121 100.988,351.115 100.997,351.583 100.906 C 351.858 100.853,352.155 100.740,352.242 100.655 C 352.441 100.460,352.384 100.471,351.667 100.764 M347.000 102.028 C 346.679 102.119,346.350 102.257,346.269 102.335 C 346.188 102.414,346.427 102.388,346.800 102.278 C 347.173 102.168,347.533 102.023,347.600 101.956 C 347.741 101.815,347.765 101.812,347.000 102.028 M341.750 103.333 C 341.301 103.448,341.292 103.461,341.667 103.464 C 341.896 103.465,342.271 103.407,342.500 103.333 C 343.060 103.154,342.455 103.154,341.750 103.333 M340.269 103.637 C 340.222 103.712,340.405 103.741,340.675 103.701 C 340.946 103.661,341.167 103.600,341.167 103.564 C 341.167 103.437,340.351 103.503,340.269 103.637 M334.545 104.657 C 334.157 104.720,333.791 104.820,333.732 104.879 C 333.626 104.985,334.294 104.907,335.583 104.663 C 336.470 104.495,335.570 104.490,334.545 104.657 M329.960 105.451 C 330.168 105.491,330.468 105.490,330.627 105.448 C 330.786 105.406,330.617 105.374,330.250 105.375 C 329.883 105.377,329.753 105.411,329.960 105.451 M326.083 105.667 L 324.250 105.767 325.917 105.782 C 326.833 105.790,328.033 105.741,328.583 105.673 L 329.583 105.549 328.750 105.557 C 328.292 105.562,327.092 105.611,326.083 105.667 M308.795 105.954 C 309.094 105.991,309.544 105.990,309.795 105.952 C 310.045 105.914,309.800 105.884,309.250 105.885 C 308.700 105.886,308.495 105.917,308.795 105.954 M323.375 105.948 C 323.535 105.990,323.798 105.990,323.958 105.948 C 324.119 105.906,323.987 105.872,323.667 105.872 C 323.346 105.872,323.215 105.906,323.375 105.948 M310.795 106.121 C 311.094 106.158,311.544 106.157,311.795 106.119 C 312.045 106.081,311.800 106.051,311.250 106.052 C 310.700 106.053,310.495 106.084,310.795 106.121 M320.125 106.284 C 320.331 106.324,320.669 106.324,320.875 106.284 C 321.081 106.245,320.912 106.212,320.500 106.212 C 320.087 106.212,319.919 106.245,320.125 106.284 " stroke="none" fill="#2bcb9c" fill-rule="evenodd"></path><path id="path2" d="M93.583 16.951 C 92.483 16.979,91.433 17.069,91.250 17.151 C 91.067 17.233,89.417 17.386,87.583 17.490 C 83.158 17.741,78.497 18.155,78.083 18.333 C 77.900 18.411,77.262 18.521,76.667 18.576 C 74.179 18.807,68.571 19.547,68.417 19.664 C 68.325 19.734,67.875 19.841,67.417 19.901 C 65.117 20.203,62.046 20.714,61.750 20.843 C 61.454 20.972,58.433 21.580,57.333 21.731 C 56.360 21.865,55.561 22.034,55.250 22.171 C 55.067 22.252,53.766 22.550,52.360 22.833 C 50.955 23.117,49.680 23.413,49.527 23.491 C 49.375 23.569,48.313 23.836,47.167 24.084 C 46.021 24.332,45.008 24.591,44.917 24.660 C 44.825 24.728,43.700 25.030,42.417 25.330 C 41.133 25.630,40.008 25.933,39.917 26.004 C 39.825 26.074,38.925 26.336,37.917 26.586 C 36.908 26.835,36.008 27.095,35.917 27.163 C 35.753 27.285,34.232 27.747,32.583 28.175 C 32.125 28.294,31.712 28.442,31.667 28.502 C 31.621 28.563,30.833 28.817,29.917 29.066 C 29.000 29.316,27.950 29.659,27.583 29.830 C 27.217 30.001,26.467 30.267,25.917 30.422 C 25.367 30.577,24.692 30.803,24.417 30.924 C 24.142 31.046,23.207 31.379,22.340 31.664 C 21.473 31.950,20.686 32.245,20.590 32.321 C 20.495 32.397,19.704 32.690,18.833 32.972 C 17.962 33.255,16.953 33.639,16.590 33.826 C 16.227 34.013,15.828 34.167,15.704 34.167 C 15.581 34.167,15.090 34.350,14.615 34.574 C 14.139 34.798,13.115 35.214,12.340 35.499 C 11.564 35.784,10.852 36.079,10.757 36.153 C 10.661 36.228,10.133 36.454,9.583 36.655 C 9.033 36.857,8.433 37.115,8.250 37.229 C 8.067 37.343,7.542 37.573,7.083 37.740 C 6.625 37.907,5.912 38.212,5.500 38.419 C 5.087 38.625,4.263 38.996,3.667 39.244 C 3.071 39.491,2.040 39.963,1.375 40.292 L 0.167 40.890 0.167 51.028 C 0.167 58.086,0.221 61.167,0.344 61.167 C 0.566 61.167,1.928 60.615,3.270 59.981 C 3.832 59.717,4.380 59.500,4.489 59.500 C 4.598 59.500,5.076 59.319,5.552 59.097 C 6.028 58.875,7.017 58.491,7.750 58.243 C 8.483 57.996,9.271 57.692,9.500 57.568 C 9.729 57.445,10.517 57.148,11.250 56.909 C 11.983 56.669,12.883 56.339,13.250 56.175 C 13.617 56.011,14.367 55.747,14.917 55.589 C 15.467 55.431,15.999 55.235,16.099 55.152 C 16.199 55.070,16.328 55.050,16.386 55.109 C 16.444 55.167,16.588 55.137,16.704 55.042 C 16.821 54.947,17.629 54.659,18.500 54.401 C 19.371 54.144,20.121 53.889,20.167 53.833 C 20.270 53.708,23.196 52.834,23.516 52.832 C 23.645 52.832,23.975 52.714,24.250 52.570 C 24.525 52.427,25.603 52.085,26.645 51.810 C 27.687 51.536,28.662 51.245,28.812 51.163 C 28.961 51.082,29.908 50.810,30.917 50.560 C 31.925 50.309,32.787 50.057,32.833 50.000 C 32.879 49.943,34.042 49.641,35.417 49.329 C 36.792 49.017,37.954 48.716,38.000 48.661 C 38.046 48.606,39.058 48.349,40.250 48.089 C 41.442 47.830,42.529 47.556,42.667 47.482 C 42.804 47.407,44.154 47.114,45.667 46.830 C 47.179 46.547,48.541 46.247,48.694 46.165 C 48.846 46.083,50.346 45.782,52.027 45.496 C 53.708 45.210,55.233 44.911,55.417 44.832 C 55.732 44.695,59.176 44.136,61.167 43.898 C 61.671 43.838,62.158 43.731,62.250 43.659 C 62.402 43.541,67.871 42.824,70.500 42.577 C 71.096 42.522,71.733 42.409,71.917 42.328 C 72.296 42.160,79.414 41.557,82.917 41.396 C 84.212 41.336,85.354 41.206,85.484 41.102 C 85.816 40.839,107.685 40.839,108.016 41.103 C 108.145 41.205,109.263 41.339,110.500 41.400 C 113.368 41.541,120.338 42.149,120.667 42.286 C 120.804 42.344,121.067 42.410,121.250 42.433 C 126.928 43.150,129.649 43.534,129.917 43.656 C 130.100 43.740,131.520 44.009,133.073 44.256 C 134.626 44.502,136.013 44.765,136.156 44.841 C 136.300 44.917,137.729 45.219,139.333 45.513 C 140.938 45.806,142.325 46.104,142.417 46.175 C 142.508 46.246,143.596 46.507,144.833 46.756 C 146.071 47.004,147.308 47.303,147.583 47.421 C 147.858 47.538,148.983 47.840,150.083 48.093 C 151.183 48.345,152.158 48.606,152.250 48.673 C 152.342 48.739,153.242 48.999,154.250 49.250 C 155.258 49.502,156.308 49.805,156.583 49.924 C 157.207 50.194,160.059 51.000,160.392 51.000 C 160.528 51.000,160.664 51.061,160.694 51.136 C 160.725 51.211,161.612 51.521,162.667 51.824 C 163.721 52.128,164.658 52.434,164.750 52.504 C 164.842 52.574,165.695 52.863,166.647 53.147 C 167.599 53.430,168.461 53.731,168.564 53.814 C 168.666 53.897,169.263 54.123,169.889 54.315 C 170.516 54.507,171.266 54.773,171.556 54.906 C 171.846 55.039,172.796 55.391,173.667 55.687 C 174.537 55.984,175.400 56.316,175.583 56.425 C 175.767 56.534,176.442 56.801,177.083 57.019 C 177.725 57.237,178.275 57.472,178.306 57.541 C 178.336 57.610,178.454 57.667,178.568 57.667 C 178.681 57.667,179.519 57.973,180.429 58.347 C 182.898 59.361,183.699 59.676,184.238 59.843 C 184.507 59.926,184.769 60.052,184.822 60.124 C 184.874 60.195,185.367 60.425,185.917 60.634 C 186.467 60.844,187.203 61.167,187.553 61.352 C 187.902 61.537,188.465 61.787,188.803 61.906 C 189.356 62.101,190.939 62.818,193.250 63.919 C 196.856 65.636,198.365 66.333,198.477 66.333 C 198.549 66.333,199.036 66.565,199.559 66.849 C 200.377 67.292,200.551 67.333,200.788 67.141 C 200.986 66.980,201.028 66.976,200.938 67.126 C 200.822 67.320,201.168 67.833,201.415 67.833 C 201.567 67.833,203.312 68.661,206.729 70.353 C 208.367 71.164,209.785 71.780,209.879 71.721 C 209.974 71.663,210.010 71.683,209.959 71.766 C 209.908 71.849,210.553 72.245,211.391 72.647 C 212.230 73.049,215.279 74.538,218.167 75.957 C 228.983 81.270,230.246 81.875,230.434 81.831 C 230.496 81.817,230.592 81.868,230.648 81.944 C 230.704 82.021,231.313 82.352,232.000 82.681 C 235.142 84.185,236.149 84.649,237.042 85.009 C 237.569 85.221,238.000 85.448,238.000 85.513 C 238.000 85.577,238.193 85.679,238.429 85.738 C 238.665 85.797,239.584 86.189,240.471 86.608 C 241.358 87.028,242.347 87.465,242.670 87.581 C 242.992 87.697,243.517 87.951,243.836 88.145 C 244.156 88.340,244.515 88.499,244.635 88.499 C 244.756 88.500,245.393 88.756,246.052 89.069 C 246.711 89.382,247.737 89.829,248.333 90.061 C 248.929 90.293,249.810 90.675,250.291 90.908 C 250.772 91.142,251.244 91.333,251.341 91.333 C 251.437 91.333,251.831 91.489,252.216 91.679 C 252.602 91.869,253.442 92.215,254.083 92.448 C 254.725 92.681,255.325 92.931,255.417 93.004 C 255.713 93.238,257.542 93.827,257.690 93.736 C 257.769 93.687,257.833 93.726,257.833 93.823 C 257.833 93.921,257.928 94.000,258.044 94.000 C 258.160 94.000,258.520 94.142,258.843 94.315 C 259.167 94.489,260.062 94.830,260.833 95.073 C 261.605 95.317,262.314 95.577,262.409 95.650 C 262.505 95.724,263.221 95.991,264.000 96.244 C 264.779 96.497,265.492 96.757,265.583 96.823 C 265.675 96.888,266.612 97.195,267.667 97.504 C 268.721 97.814,269.621 98.112,269.667 98.167 C 269.779 98.302,272.711 99.167,273.058 99.167 C 273.209 99.167,273.333 99.230,273.333 99.307 C 273.333 99.384,273.765 99.542,274.292 99.659 C 274.819 99.775,275.533 99.974,275.878 100.102 C 276.224 100.229,276.625 100.333,276.770 100.333 C 276.915 100.333,277.269 100.442,277.558 100.575 C 278.015 100.786,280.379 101.390,282.167 101.753 C 282.487 101.818,282.825 101.932,282.917 102.005 C 283.008 102.078,284.096 102.340,285.333 102.587 C 286.571 102.835,287.658 103.095,287.750 103.166 C 287.913 103.291,292.177 104.044,294.000 104.269 C 294.504 104.332,294.954 104.437,295.000 104.503 C 295.092 104.635,300.040 105.255,302.417 105.432 C 303.242 105.493,304.008 105.616,304.120 105.704 C 304.231 105.793,305.469 105.866,306.870 105.866 C 308.271 105.866,310.650 105.973,312.157 106.103 C 315.090 106.355,322.472 106.264,323.047 105.968 C 323.211 105.884,324.599 105.747,326.131 105.663 C 329.075 105.503,331.542 105.261,333.023 104.987 C 333.514 104.897,335.282 104.603,336.950 104.335 C 338.618 104.066,340.118 103.775,340.283 103.686 C 340.448 103.598,341.820 103.290,343.331 103.001 C 344.842 102.712,346.155 102.413,346.248 102.336 C 346.341 102.259,347.392 101.959,348.583 101.669 C 349.775 101.380,350.975 101.042,351.250 100.919 C 351.525 100.796,352.350 100.523,353.083 100.313 C 353.817 100.104,354.442 99.872,354.472 99.799 C 354.503 99.726,354.615 99.667,354.721 99.667 C 355.026 99.667,358.240 98.607,358.336 98.474 C 358.384 98.409,358.984 98.169,359.670 97.941 C 360.356 97.713,361.225 97.374,361.603 97.187 C 362.366 96.809,363.551 96.353,364.125 96.217 C 364.331 96.168,364.500 96.067,364.500 95.993 C 364.500 95.919,365.137 95.618,365.917 95.324 C 366.696 95.030,367.333 94.724,367.333 94.645 C 367.333 94.565,367.420 94.500,367.526 94.500 C 367.742 94.500,372.109 92.391,372.398 92.147 C 372.500 92.061,372.921 91.816,373.333 91.603 C 375.272 90.598,376.488 89.920,377.278 89.400 C 377.752 89.088,378.209 88.833,378.294 88.833 C 378.379 88.833,378.589 88.678,378.761 88.488 C 379.160 88.047,378.188 88.407,375.545 89.679 C 374.607 90.131,373.726 90.500,373.586 90.500 C 373.447 90.500,373.333 90.557,373.333 90.626 C 373.333 90.757,372.943 90.946,371.667 91.433 C 371.254 91.591,370.842 91.773,370.750 91.838 C 370.658 91.904,369.908 92.201,369.083 92.500 C 368.258 92.799,367.502 93.107,367.402 93.186 C 367.302 93.265,366.629 93.523,365.906 93.759 C 365.184 93.995,364.515 94.249,364.421 94.323 C 364.327 94.398,363.462 94.698,362.500 94.992 C 361.537 95.285,360.622 95.593,360.465 95.676 C 360.186 95.825,358.243 96.384,356.923 96.695 C 356.560 96.781,356.185 96.913,356.090 96.988 C 355.922 97.122,354.716 97.434,352.833 97.831 C 352.329 97.937,351.767 98.093,351.583 98.178 C 351.254 98.330,349.092 98.769,346.667 99.177 C 345.979 99.292,345.342 99.442,345.250 99.511 C 345.158 99.579,344.798 99.680,344.450 99.735 C 342.980 99.966,337.069 100.667,336.589 100.667 C 336.302 100.667,335.995 100.735,335.908 100.818 C 335.128 101.566,311.705 101.566,310.925 100.818 C 310.838 100.735,310.484 100.667,310.139 100.667 C 309.174 100.667,301.464 99.682,301.052 99.506 C 300.852 99.420,299.389 99.120,297.802 98.839 C 296.215 98.558,294.767 98.256,294.583 98.168 C 294.400 98.080,293.387 97.818,292.333 97.587 C 291.279 97.356,290.267 97.098,290.083 97.013 C 289.900 96.929,288.841 96.629,287.729 96.347 C 286.618 96.066,285.493 95.723,285.229 95.585 C 284.966 95.448,284.648 95.335,284.524 95.334 C 284.222 95.333,281.462 94.494,281.250 94.339 C 281.158 94.272,280.408 94.009,279.583 93.753 C 278.758 93.497,278.008 93.230,277.917 93.160 C 277.825 93.089,277.000 92.790,276.083 92.495 C 275.167 92.200,274.333 91.892,274.231 91.811 C 274.129 91.730,273.566 91.507,272.981 91.317 C 272.396 91.126,271.692 90.836,271.417 90.672 C 271.142 90.508,270.279 90.165,269.500 89.909 C 268.721 89.654,267.971 89.359,267.833 89.254 C 267.696 89.148,267.246 88.929,266.833 88.765 C 266.421 88.601,265.633 88.250,265.083 87.984 C 264.533 87.718,264.028 87.500,263.961 87.500 C 263.894 87.500,263.219 87.204,262.461 86.842 C 261.703 86.480,260.971 86.161,260.833 86.134 C 260.696 86.106,260.546 86.044,260.500 85.996 C 260.352 85.841,252.190 81.833,252.023 81.833 C 251.934 81.833,251.836 81.772,251.806 81.698 C 251.775 81.624,251.262 81.322,250.667 81.028 C 249.045 80.226,246.398 78.835,245.082 78.092 C 243.704 77.313,242.533 76.673,241.500 76.133 C 241.088 75.917,240.212 75.424,239.554 75.037 C 238.897 74.650,238.278 74.333,238.179 74.333 C 238.081 74.333,238.000 74.258,238.000 74.167 C 238.000 74.075,237.884 74.000,237.743 74.000 C 237.602 74.000,237.395 73.923,237.285 73.830 C 236.932 73.532,234.994 72.333,234.864 72.333 C 234.796 72.333,234.217 71.996,233.578 71.584 C 232.939 71.173,232.323 70.835,232.208 70.834 C 232.094 70.834,231.862 70.702,231.692 70.542 C 231.157 70.034,230.034 69.498,229.719 69.600 C 229.495 69.673,229.475 69.657,229.640 69.538 C 229.845 69.392,228.977 68.667,228.596 68.667 C 228.534 68.667,227.962 68.327,227.327 67.912 C 226.691 67.497,226.039 67.108,225.877 67.047 C 225.716 66.986,224.850 66.463,223.954 65.885 C 223.058 65.306,222.286 64.833,222.237 64.833 C 222.189 64.833,221.629 64.494,220.993 64.079 C 220.358 63.664,219.705 63.275,219.544 63.215 C 219.382 63.156,218.526 62.633,217.640 62.053 C 216.755 61.474,215.982 61.000,215.923 61.000 C 215.864 61.000,215.313 60.674,214.699 60.275 C 214.086 59.876,213.396 59.452,213.167 59.333 C 212.938 59.214,212.713 59.072,212.667 59.017 C 212.472 58.784,211.538 58.351,211.440 58.449 C 211.381 58.508,211.333 58.481,211.333 58.389 C 211.333 58.236,209.824 57.167,209.607 57.167 C 209.555 57.167,208.879 56.754,208.105 56.250 C 207.332 55.746,206.623 55.333,206.530 55.333 C 206.437 55.333,206.336 55.277,206.306 55.208 C 206.275 55.140,205.987 54.940,205.667 54.765 C 205.346 54.590,204.701 54.196,204.233 53.890 C 203.765 53.584,203.330 53.333,203.266 53.333 C 203.201 53.333,202.631 52.995,201.997 52.582 C 201.364 52.168,200.674 51.753,200.464 51.660 C 200.255 51.566,199.558 51.157,198.917 50.749 C 197.416 49.797,196.167 49.129,196.167 49.279 C 196.167 49.344,196.067 49.261,195.945 49.094 C 195.823 48.927,195.231 48.519,194.629 48.187 C 194.028 47.855,193.107 47.335,192.584 47.030 C 192.060 46.726,191.531 46.516,191.408 46.564 C 191.276 46.614,191.216 46.564,191.263 46.442 C 191.309 46.322,191.077 46.116,190.713 45.954 C 190.367 45.799,189.821 45.504,189.500 45.298 C 188.883 44.902,187.397 44.103,185.333 43.056 C 184.646 42.707,184.046 42.372,184.000 42.312 C 183.954 42.251,183.489 41.987,182.966 41.726 C 182.443 41.464,179.327 39.900,176.041 38.250 C 169.848 35.141,167.594 34.052,167.167 33.967 C 167.030 33.939,166.843 33.827,166.751 33.717 C 166.659 33.608,166.171 33.358,165.667 33.162 C 165.162 32.966,164.300 32.594,163.750 32.336 C 162.105 31.562,160.639 30.905,159.667 30.506 C 159.162 30.299,158.412 29.976,158.000 29.789 C 157.587 29.602,157.156 29.448,157.042 29.447 C 156.927 29.445,156.833 29.382,156.833 29.306 C 156.833 29.229,156.720 29.167,156.583 29.167 C 156.445 29.167,155.938 28.973,155.458 28.735 C 154.977 28.498,153.946 28.079,153.168 27.804 C 152.389 27.530,151.714 27.251,151.668 27.185 C 151.621 27.118,151.066 26.897,150.435 26.692 C 149.803 26.488,148.943 26.164,148.524 25.973 C 148.106 25.782,147.123 25.441,146.340 25.214 C 145.557 24.988,144.842 24.744,144.750 24.672 C 144.658 24.600,143.871 24.335,143.000 24.083 C 142.129 23.832,141.338 23.563,141.242 23.487 C 141.146 23.411,140.181 23.115,139.097 22.830 C 138.014 22.545,137.005 22.248,136.855 22.170 C 136.575 22.024,135.288 21.696,133.250 21.252 C 132.608 21.112,131.933 20.927,131.750 20.842 C 131.567 20.756,130.367 20.491,129.083 20.252 C 127.800 20.013,126.600 19.749,126.417 19.666 C 126.056 19.503,121.429 18.750,119.667 18.568 C 119.071 18.507,118.508 18.400,118.417 18.332 C 118.095 18.091,109.510 17.335,107.075 17.334 C 106.429 17.334,105.829 17.268,105.742 17.188 C 105.574 17.034,96.975 16.867,93.583 16.951 " stroke="none" fill="#239b7b" fill-rule="evenodd"></path><path id="path3" d="M108.000 65.549 C 107.954 65.596,106.754 65.678,105.333 65.731 C 102.666 65.830,100.681 65.953,99.667 66.082 C 99.346 66.123,98.296 66.204,97.333 66.262 C 96.371 66.320,95.512 66.435,95.425 66.517 C 95.338 66.599,95.023 66.667,94.725 66.667 C 93.522 66.667,86.897 67.612,86.459 67.846 C 86.299 67.932,85.924 68.036,85.626 68.078 C 85.327 68.120,84.446 68.273,83.667 68.419 C 82.887 68.564,81.987 68.729,81.667 68.784 C 81.346 68.840,81.046 68.934,81.000 68.993 C 80.954 69.053,79.792 69.345,78.417 69.643 C 77.042 69.940,75.767 70.255,75.583 70.342 C 75.400 70.429,74.329 70.726,73.203 71.002 C 72.077 71.278,71.027 71.575,70.869 71.662 C 70.712 71.748,69.779 72.014,68.796 72.251 C 67.812 72.488,66.800 72.791,66.546 72.923 C 66.291 73.056,65.985 73.165,65.865 73.166 C 65.745 73.166,65.689 73.235,65.740 73.318 C 65.792 73.401,65.695 73.433,65.526 73.388 C 65.236 73.313,63.041 73.866,62.500 74.152 C 62.362 74.225,61.537 74.492,60.667 74.746 C 59.796 75.000,59.008 75.264,58.917 75.332 C 58.825 75.401,57.925 75.699,56.917 75.995 C 55.908 76.291,55.008 76.592,54.917 76.663 C 54.825 76.734,54.038 76.997,53.167 77.247 C 52.296 77.497,51.433 77.792,51.250 77.902 C 51.067 78.012,50.204 78.315,49.333 78.575 C 48.462 78.835,47.670 79.110,47.572 79.185 C 47.475 79.261,46.687 79.553,45.822 79.833 C 44.958 80.114,44.025 80.447,43.750 80.574 C 43.475 80.700,42.837 80.934,42.333 81.094 C 41.829 81.253,41.298 81.484,41.154 81.608 C 41.009 81.732,40.807 81.833,40.705 81.833 C 40.438 81.833,37.449 82.843,37.250 83.000 C 37.158 83.072,36.374 83.368,35.507 83.658 C 34.640 83.947,33.852 84.244,33.757 84.318 C 33.661 84.391,32.983 84.659,32.250 84.913 C 31.517 85.167,30.842 85.433,30.750 85.504 C 30.658 85.574,29.871 85.876,29.000 86.176 C 28.129 86.475,27.267 86.812,27.083 86.924 C 26.900 87.037,26.450 87.222,26.083 87.335 C 25.717 87.448,25.345 87.606,25.258 87.687 C 25.171 87.767,24.974 87.833,24.820 87.833 C 24.667 87.833,24.447 87.946,24.333 88.083 C 24.219 88.221,23.995 88.333,23.835 88.333 C 23.496 88.333,22.179 88.836,20.730 89.519 C 20.168 89.784,19.606 90.002,19.480 90.005 C 19.353 90.008,18.875 90.198,18.417 90.428 C 17.958 90.658,17.021 91.043,16.333 91.283 C 15.646 91.524,14.933 91.816,14.750 91.932 C 14.567 92.048,13.921 92.329,13.316 92.555 C 12.711 92.781,12.073 93.047,11.899 93.144 C 11.417 93.416,9.103 94.331,8.935 94.317 C 8.854 94.310,8.741 94.375,8.685 94.461 C 8.629 94.546,7.965 94.853,7.210 95.143 C 6.455 95.433,5.592 95.819,5.293 96.001 C 4.995 96.183,4.652 96.332,4.532 96.333 C 4.413 96.333,3.850 96.565,3.282 96.848 C 2.241 97.367,0.689 98.000,0.458 98.000 C 0.390 98.000,0.333 97.217,0.333 96.260 C 0.333 95.124,0.266 94.478,0.141 94.401 C 0.023 94.328,-0.006 94.355,0.064 94.470 C 0.128 94.573,0.177 97.884,0.172 101.827 L 0.164 108.997 1.124 108.471 C 1.651 108.181,2.266 107.863,2.490 107.764 C 2.893 107.585,4.378 106.827,5.500 106.228 C 5.821 106.057,6.129 105.854,6.185 105.777 C 6.241 105.701,6.354 105.635,6.435 105.630 C 6.601 105.622,8.703 104.631,8.833 104.500 C 8.879 104.454,9.404 104.192,10.000 103.917 C 10.596 103.642,11.138 103.342,11.206 103.250 C 11.287 103.139,11.330 103.139,11.333 103.250 C 11.337 103.361,11.379 103.361,11.461 103.250 C 11.528 103.158,12.071 102.858,12.667 102.583 C 13.262 102.308,13.787 102.037,13.833 101.981 C 13.879 101.924,14.104 101.821,14.333 101.751 C 15.059 101.530,17.167 100.490,17.167 100.354 C 17.167 100.281,17.266 100.222,17.387 100.222 C 17.589 100.222,18.446 99.831,22.250 98.003 C 23.608 97.351,25.030 96.683,27.417 95.580 C 28.150 95.241,29.200 94.752,29.750 94.494 C 30.920 93.945,32.880 93.088,33.000 93.073 C 33.090 93.061,34.157 92.574,35.750 91.816 C 36.300 91.555,37.051 91.236,37.420 91.108 C 37.788 90.980,38.351 90.716,38.670 90.522 C 38.989 90.327,39.348 90.168,39.469 90.167 C 39.589 90.167,40.226 89.910,40.885 89.596 C 41.544 89.283,42.670 88.814,43.388 88.555 C 44.105 88.295,44.828 87.957,44.995 87.802 C 45.162 87.647,45.330 87.552,45.369 87.591 C 45.447 87.669,47.650 86.860,47.917 86.655 C 48.009 86.585,48.684 86.322,49.417 86.070 C 50.150 85.818,50.900 85.520,51.083 85.407 C 51.267 85.294,52.017 84.998,52.750 84.750 C 53.483 84.502,54.162 84.235,54.258 84.157 C 54.354 84.079,55.067 83.812,55.841 83.564 C 56.616 83.315,57.400 83.022,57.583 82.912 C 57.767 82.801,58.592 82.503,59.417 82.250 C 60.242 81.996,60.992 81.732,61.083 81.662 C 61.175 81.593,62.000 81.300,62.917 81.011 C 63.833 80.722,64.808 80.385,65.083 80.262 C 65.358 80.139,66.183 79.866,66.917 79.654 C 67.650 79.443,68.287 79.219,68.333 79.158 C 68.379 79.097,68.867 78.930,69.417 78.788 C 72.214 78.064,72.596 77.954,72.750 77.830 C 72.842 77.756,73.739 77.497,74.744 77.255 C 75.749 77.013,76.649 76.755,76.744 76.683 C 76.839 76.610,78.079 76.308,79.500 76.013 C 80.921 75.718,82.233 75.409,82.417 75.328 C 82.927 75.100,88.863 74.116,89.578 74.140 C 89.759 74.146,89.946 74.089,89.995 74.013 C 90.086 73.870,98.216 72.995,99.425 72.998 C 99.796 72.999,100.171 72.933,100.258 72.851 C 100.635 72.498,116.201 71.902,120.417 72.080 C 121.608 72.131,124.158 72.205,126.083 72.246 C 130.533 72.341,135.817 72.641,136.250 72.824 C 136.433 72.901,137.746 73.049,139.167 73.152 C 142.967 73.429,146.703 73.837,147.083 74.016 C 147.267 74.103,147.604 74.168,147.833 74.160 C 148.063 74.153,149.637 74.339,151.333 74.573 C 153.029 74.808,154.792 75.048,155.250 75.106 C 155.708 75.165,156.158 75.267,156.250 75.335 C 156.342 75.402,156.679 75.499,157.000 75.550 C 157.321 75.602,158.858 75.841,160.417 76.083 C 161.975 76.325,163.370 76.586,163.518 76.664 C 163.665 76.742,164.865 77.002,166.184 77.241 C 167.504 77.481,168.696 77.725,168.833 77.785 C 169.141 77.918,169.435 77.978,170.083 78.041 C 170.358 78.068,170.665 78.141,170.764 78.204 C 170.863 78.267,171.763 78.482,172.764 78.683 C 173.765 78.883,174.622 79.106,174.669 79.178 C 174.716 79.250,175.054 79.349,175.419 79.397 C 175.784 79.445,176.233 79.524,176.417 79.571 C 176.600 79.618,177.275 79.781,177.917 79.932 C 178.558 80.084,179.158 80.253,179.250 80.308 C 179.342 80.362,179.492 80.422,179.583 80.439 C 179.675 80.457,180.275 80.601,180.917 80.759 C 181.558 80.916,182.271 81.059,182.500 81.076 C 182.886 81.105,183.430 81.286,184.250 81.658 C 184.433 81.742,185.162 81.932,185.869 82.082 C 186.576 82.231,187.626 82.540,188.202 82.769 C 188.779 82.997,189.550 83.247,189.917 83.324 C 191.153 83.582,192.749 84.035,192.923 84.176 C 193.019 84.253,193.394 84.388,193.757 84.476 C 195.480 84.893,196.999 85.328,197.277 85.484 C 197.814 85.786,200.162 86.356,200.360 86.233 C 200.478 86.160,200.506 86.189,200.433 86.308 C 200.355 86.434,200.460 86.500,200.740 86.500 C 200.975 86.500,201.167 86.562,201.167 86.639 C 201.167 86.715,201.635 86.898,202.208 87.045 C 204.318 87.588,205.254 87.867,205.422 88.005 C 205.516 88.083,206.341 88.345,207.255 88.587 C 208.169 88.829,209.142 89.128,209.417 89.250 C 209.692 89.373,210.629 89.672,211.500 89.915 C 212.371 90.158,213.196 90.401,213.333 90.455 C 213.471 90.509,213.651 90.537,213.735 90.518 C 213.818 90.498,213.930 90.549,213.985 90.631 C 214.068 90.757,216.043 91.350,217.292 91.623 C 217.498 91.669,217.667 91.772,217.667 91.853 C 217.667 91.934,217.760 92.000,217.875 91.999 C 218.193 91.997,221.184 92.837,221.750 93.087 C 222.025 93.208,222.475 93.359,222.750 93.422 C 223.761 93.654,225.591 94.191,225.859 94.334 C 226.010 94.416,227.060 94.723,228.192 95.017 C 229.324 95.311,230.287 95.600,230.333 95.659 C 230.379 95.718,231.279 95.975,232.333 96.232 C 233.387 96.488,234.333 96.766,234.434 96.850 C 234.536 96.933,234.948 97.069,235.351 97.151 C 236.769 97.442,239.084 98.056,239.167 98.163 C 239.243 98.263,240.826 98.651,242.649 99.018 C 243.052 99.099,243.464 99.231,243.566 99.312 C 243.731 99.443,245.850 99.960,247.833 100.353 C 248.246 100.434,248.696 100.551,248.833 100.611 C 248.971 100.672,249.196 100.729,249.333 100.738 C 249.471 100.747,249.658 100.801,249.750 100.857 C 249.842 100.914,250.967 101.162,252.250 101.409 C 253.533 101.656,254.706 101.923,254.855 102.002 C 255.107 102.134,256.696 102.476,257.667 102.606 C 258.405 102.705,259.909 103.011,260.167 103.115 C 260.304 103.170,260.567 103.229,260.750 103.246 C 260.933 103.263,261.196 103.323,261.333 103.381 C 261.471 103.438,262.896 103.681,264.500 103.921 C 266.104 104.160,267.529 104.414,267.667 104.486 C 267.804 104.557,269.679 104.823,271.833 105.077 C 273.987 105.330,275.862 105.577,276.000 105.625 C 276.312 105.733,276.513 105.758,279.583 106.063 C 284.547 106.558,291.959 106.804,298.167 106.681 L 301.250 106.619 299.417 106.491 C 298.408 106.420,295.933 106.276,293.917 106.169 C 291.900 106.063,290.179 105.906,290.092 105.821 C 290.005 105.736,289.630 105.666,289.258 105.665 C 288.599 105.663,284.535 105.226,281.292 104.809 C 280.398 104.693,279.667 104.548,279.667 104.486 C 279.667 104.387,279.065 104.293,276.917 104.057 C 276.025 103.959,273.255 103.420,273.083 103.311 C 272.992 103.253,272.579 103.152,272.167 103.088 C 270.246 102.786,267.058 102.148,266.827 102.019 C 266.686 101.939,266.236 101.819,265.827 101.751 C 265.418 101.683,264.971 101.600,264.833 101.566 C 264.696 101.532,264.021 101.387,263.333 101.244 C 262.646 101.100,261.933 100.912,261.750 100.826 C 261.567 100.740,260.892 100.555,260.250 100.415 C 258.508 100.035,256.959 99.649,256.583 99.502 C 256.076 99.303,255.002 99.008,254.167 98.838 C 252.534 98.505,251.833 98.300,251.833 98.153 C 251.833 98.069,251.702 98.000,251.542 98.001 C 251.167 98.003,248.238 97.201,247.583 96.917 C 247.308 96.798,246.296 96.500,245.334 96.254 C 244.372 96.008,243.510 95.748,243.418 95.676 C 243.255 95.550,241.774 95.098,240.083 94.658 C 239.625 94.539,239.213 94.394,239.167 94.337 C 239.121 94.280,238.371 94.022,237.500 93.765 C 236.629 93.508,235.842 93.240,235.750 93.169 C 235.658 93.098,234.871 92.838,234.000 92.590 C 233.129 92.342,232.192 92.038,231.917 91.913 C 231.642 91.788,230.742 91.486,229.917 91.241 C 229.092 90.995,228.342 90.740,228.250 90.673 C 228.158 90.606,227.408 90.345,226.583 90.093 C 225.758 89.842,224.858 89.531,224.583 89.404 C 224.308 89.276,223.457 88.984,222.691 88.756 C 221.926 88.528,221.081 88.232,220.814 88.099 C 220.547 87.966,219.636 87.655,218.790 87.408 C 217.943 87.161,217.164 86.891,217.060 86.808 C 216.955 86.724,216.130 86.426,215.227 86.144 C 214.323 85.863,213.508 85.572,213.417 85.499 C 213.325 85.425,212.800 85.240,212.250 85.088 C 210.956 84.730,210.275 84.471,210.151 84.291 C 210.096 84.212,209.785 84.132,209.459 84.115 C 209.133 84.098,208.896 84.036,208.931 83.978 C 208.967 83.919,208.653 83.785,208.233 83.680 C 207.813 83.574,207.158 83.345,206.777 83.172 C 206.395 82.998,205.296 82.623,204.333 82.338 C 203.371 82.054,202.396 81.719,202.167 81.595 C 201.938 81.470,201.188 81.203,200.500 81.000 C 199.813 80.798,199.175 80.574,199.083 80.503 C 198.992 80.432,198.204 80.169,197.333 79.919 C 196.463 79.668,195.525 79.363,195.250 79.241 C 194.975 79.119,194.075 78.819,193.250 78.574 C 192.425 78.329,191.675 78.068,191.583 77.995 C 191.391 77.841,188.726 77.121,188.292 77.106 C 188.131 77.100,188.000 77.036,188.000 76.964 C 188.000 76.892,187.850 76.833,187.667 76.833 C 187.483 76.833,187.333 76.758,187.333 76.667 C 187.333 76.575,187.223 76.500,187.089 76.500 C 186.749 76.500,183.146 75.518,182.807 75.334 C 182.655 75.251,181.734 74.991,180.760 74.756 C 179.786 74.522,178.861 74.258,178.703 74.169 C 178.449 74.027,175.915 73.394,174.333 73.078 C 174.012 73.014,173.675 72.902,173.583 72.830 C 173.492 72.758,172.446 72.496,171.260 72.248 C 170.074 72.000,168.987 71.734,168.844 71.657 C 168.700 71.580,167.346 71.282,165.833 70.994 C 164.321 70.707,162.952 70.402,162.791 70.317 C 162.631 70.233,161.093 69.935,159.375 69.655 C 157.656 69.375,156.100 69.082,155.917 69.002 C 155.614 68.872,152.137 68.320,150.083 68.076 C 149.625 68.022,149.100 67.912,148.917 67.831 C 148.569 67.679,142.071 66.901,139.750 66.734 C 139.017 66.681,138.341 66.575,138.249 66.498 C 138.156 66.422,137.389 66.317,136.544 66.266 C 135.698 66.215,134.574 66.133,134.045 66.084 C 130.351 65.743,127.040 65.632,118.167 65.553 C 112.621 65.504,108.046 65.502,108.000 65.549 M336.542 104.448 C 336.702 104.490,336.965 104.490,337.125 104.448 C 337.285 104.406,337.154 104.372,336.833 104.372 C 336.512 104.372,336.381 104.406,336.542 104.448 M329.708 105.615 C 329.869 105.657,330.131 105.657,330.292 105.615 C 330.452 105.573,330.321 105.539,330.000 105.539 C 329.679 105.539,329.548 105.573,329.708 105.615 M307.292 106.118 C 307.498 106.157,307.835 106.157,308.042 106.118 C 308.248 106.078,308.079 106.045,307.667 106.045 C 307.254 106.045,307.085 106.078,307.292 106.118 M318.542 106.286 C 318.794 106.324,319.206 106.324,319.458 106.286 C 319.710 106.248,319.504 106.217,319.000 106.217 C 318.496 106.217,318.290 106.248,318.542 106.286 M321.460 106.285 C 321.668 106.324,321.968 106.323,322.127 106.281 C 322.286 106.239,322.117 106.207,321.750 106.209 C 321.383 106.211,321.253 106.245,321.460 106.285 " stroke="none" fill="#2becbb" fill-rule="evenodd"></path><path id="path4" d="M306.958 0.125 C 324.031 0.148,351.969 0.148,369.042 0.125 C 386.115 0.102,372.146 0.082,338.000 0.082 C 303.854 0.082,289.885 0.102,306.958 0.125 M0.079 13.583 C 0.079 20.275,0.100 22.988,0.125 19.613 C 0.150 16.237,0.150 10.762,0.125 7.446 C 0.100 4.130,0.079 6.892,0.079 13.583 " stroke="none" fill="#445c8c" fill-rule="evenodd"></path></g></svg>